<mxfile host="app.diagrams.net" modified="2024-04-22T16:30:36.085Z" agent="Mozilla/5.0 (X11; Ubuntu; Linux x86_64; rv:125.0) Gecko/20100101 Firefox/125.0" version="24.2.7" etag="g5_KhjP7j8kChLzrmj6k" type="github">
  <diagram name="PÃ¡gina-1" id="FMQPN5Sc3zXwMnLSEuNw">
    <mxGraphModel>
      <root>
        <mxCell id="0" />
        <mxCell id="1" parent="0" />
      </root>
    </mxGraphModel>
  </diagram>
</mxfile>
